<!-- <svg t="1628566370803" class="icon" viewBox="0 0 1024 1024" version="1.1" xmlns="http://www.w3.org/2000/svg" p-id="2981" width="200" height="200"><path d="M64 64m128 0l640 0q128 0 128 128l0 640q0 128-128 128l-640 0q-128 0-128-128l0-640q0-128 128-128Z" fill="#FFFFFF" p-id="2982"></path><path d="M128 128m64 0l640 0q64 0 64 64l0 640q0 64-64 64l-640 0q-64 0-64-64l0-640q0-64 64-64Z" fill="#FF985F" p-id="2983"></path><path d="M608 852.8a16 16 0 0 1-16-16 16 16 0 0 1 14.4-16C665.6 816 800 800 800 736s-54.4-84.8-105.6-100.8a14.4 14.4 0 0 1-9.6-19.2 16 16 0 0 1 19.2-11.2c64 19.2 128 67.2 128 131.2s-76.8 107.2-222.4 116.8zM704 192a126.4 126.4 0 0 0-99.2 48c-110.4-64-233.6-57.6-312-17.6S192 308.8 192 368a112 112 0 0 0 54.4 94.4h8a16 16 0 0 0 14.4-9.6 16 16 0 0 0-8-20.8 80 80 0 0 1-36.8-64c0-48 30.4-89.6 83.2-116.8a302.4 302.4 0 0 1 280 16A140.8 140.8 0 0 0 576 320a128 128 0 1 0 128-128z m0 192a64 64 0 1 1 64-64 64 64 0 0 1-64 64zM542.4 820.8h-28.8a17.6 17.6 0 0 0-17.6 17.6 17.6 17.6 0 0 0 17.6 19.2h28.8a17.6 17.6 0 0 0 17.6-19.2 17.6 17.6 0 0 0-17.6-17.6zM480 512h-112l-32 64h144v-64zM272 608a32 32 0 0 0-32 32v32a32 32 0 0 0 32 32 64 64 0 0 1 128 0h48a64 64 0 0 1 128 0 32 32 0 0 0 32-32v-48a14.4 14.4 0 0 0-16-16z" fill="#FFFFFF" p-id="2984"></path><path d="M336 704m-40 0a40 40 0 1 0 80 0 40 40 0 1 0-80 0Z" fill="#FFFFFF" p-id="2985"></path><path d="M512 704m-40 0a40 40 0 1 0 80 0 40 40 0 1 0-80 0Z" fill="#FFFFFF" p-id="2986"></path><path d="M240 656m-16 0a16 16 0 1 0 32 0 16 16 0 1 0-32 0Z" fill="#FFFFFF" p-id="2987"></path><path d="M608 656m-16 0a16 16 0 1 0 32 0 16 16 0 1 0-32 0Z" fill="#FFFFFF" p-id="2988"></path><path d="M560 432h-128a46.4 46.4 0 0 0-48 48h208v-16a32 32 0 0 0-32-32zM512 512h80v64h-80zM432 416v-16a14.4 14.4 0 0 1 16-16h32a14.4 14.4 0 0 1 16 16v16z" fill="#FFFFFF" p-id="2989"></path></svg> -->
<svg t="1628566493042" class="icon" viewBox="0 0 1308 1024" version="1.1" xmlns="http://www.w3.org/2000/svg" p-id="4220" width="200" height="200"><path d="M1308.444444 153.6C1308.444444 68.266667 1240.177778 0 1154.844444 0s-153.6 68.266667-153.6 153.6c0 68.266667 51.2 130.844444 113.777778 147.911111-34.133333 290.133333-119.466667 620.088889-250.311111 620.088889-73.955556 0-125.155556-136.533333-176.355555-273.066667-56.888889-153.6-119.466667-318.577778-238.933334-318.577777-136.533333 0-238.933333 210.488889-295.822222 386.844444-85.333333 0-153.6 68.266667-153.6 153.6S68.266667 1024 153.6 1024s153.6-68.266667 153.6-153.6c0-62.577778-39.822222-119.466667-96.711111-142.222222 51.2-159.288889 147.911111-341.333333 238.933333-341.333334 79.644444 0 136.533333 147.911111 187.733334 278.755556 62.577778 159.288889 119.466667 307.2 227.555555 307.2 199.111111-5.688889 278.755556-432.355556 301.511111-671.288889 79.644444-5.688889 142.222222-68.266667 142.222222-147.911111z" fill="#ffffff" p-id="4221"></path></svg>