<svg t="1628059697523" class="icon" viewBox="0 0 1024 1024" version="1.1" xmlns="http://www.w3.org/2000/svg" p-id="1293" width="200" height="200"><path d="M810.666667 216.064l-48.128-48.128-86.698667 86.698667 48.128 48.128 86.698667-86.698667zM348.501333 254.634667L261.802667 167.936 213.674667 216.064 300.373333 302.762667l48.128-48.128zM546.133333 78.165333h-68.266666v122.538667h68.266666V78.165333z m231.082667 353.962667v68.266667h122.538667v-68.266667h-122.538667z m-77.482667 28.672c0-103.424-84.309333-187.733333-187.733333-187.733333s-187.733333 84.309333-187.733333 187.733333V750.933333H204.8v68.266667h170.666667v136.533333h68.266666v-136.533333h136.533334v136.533333h68.266666v-136.533333h170.666667v-68.266667h-119.466667v-290.133333z m-68.266666 290.133333h-238.933334v-290.133333c0-65.877333 53.589333-119.466667 119.466667-119.466667s119.466667 53.589333 119.466667 119.466667V750.933333zM249.514667 432.128H123.904v68.266667H249.173333v-68.266667z" p-id="1294" fill="#ffffff"></path></svg>